<svg width="100" height="38" viewBox="0 0 100 38" fill="none" xmlns="http://www.w3.org/2000/svg">
<rect x="0.332031" width="99.0811" height="37.6216" rx="6.27027" fill="#EF3333"/>
<path d="M21.352 18.9399L20.8924 17.2479C20.6557 16.4402 20.4259 15.6047 20.2031 14.7413C19.9942 13.8778 19.7714 13.0284 19.5346 12.1928H19.4511C19.2561 13.0423 19.0472 13.8987 18.8244 14.7621C18.6016 15.6116 18.3718 16.4402 18.1351 17.2479L17.6755 18.9399H21.352ZM22.0204 21.3421H17.0071L15.9209 25.311H12.7875L17.7382 9.85326H21.3729L26.3444 25.311H23.1066L22.0204 21.3421ZM32.0184 30.387C31.3221 30.387 30.6745 30.3244 30.0757 30.199C29.4908 30.0876 28.9756 29.9066 28.5299 29.6559C28.0982 29.4053 27.757 29.0919 27.5064 28.7159C27.2557 28.3399 27.1304 27.8943 27.1304 27.379C27.1304 26.8916 27.2766 26.439 27.569 26.0213C27.8615 25.6174 28.2723 25.2623 28.8015 24.9559V24.8515C28.4951 24.6565 28.2375 24.4058 28.0286 24.0995C27.8336 23.7792 27.7361 23.3753 27.7361 22.8879C27.7361 22.4423 27.8615 22.0315 28.1121 21.6555C28.3767 21.2656 28.6831 20.9453 29.0313 20.6946V20.611C28.6274 20.3186 28.2653 19.9078 27.945 19.3786C27.6387 18.8494 27.4855 18.2436 27.4855 17.5613C27.4855 16.8789 27.6108 16.2731 27.8615 15.7439C28.1261 15.2147 28.4742 14.7691 28.9059 14.407C29.3516 14.045 29.8529 13.7734 30.4099 13.5924C30.9809 13.4113 31.5797 13.3208 32.2064 13.3208C32.5267 13.3208 32.84 13.3487 33.1464 13.4044C33.4527 13.4601 33.7243 13.5297 33.961 13.6133H38.1806V15.8693H36.1753C36.3284 16.0642 36.4538 16.3218 36.5513 16.6421C36.6627 16.9485 36.7184 17.2827 36.7184 17.6448C36.7184 18.2993 36.6 18.8773 36.3633 19.3786C36.1265 19.866 35.8062 20.2768 35.4024 20.611C34.9985 20.9453 34.5181 21.1959 33.961 21.363C33.4179 21.5301 32.833 21.6137 32.2064 21.6137C31.9696 21.6137 31.719 21.5928 31.4544 21.551C31.2037 21.4953 30.953 21.4257 30.7024 21.3421C30.5353 21.4814 30.4099 21.6276 30.3264 21.7808C30.2428 21.9201 30.201 22.1081 30.201 22.3448C30.201 22.6651 30.3333 22.9088 30.5979 23.0759C30.8625 23.2291 31.343 23.3057 32.0393 23.3057H34.0237C35.4442 23.3057 36.5234 23.5355 37.2615 23.995C37.9996 24.4546 38.3686 25.1996 38.3686 26.2301C38.3686 26.815 38.2224 27.3581 37.9299 27.8595C37.6375 28.3747 37.2127 28.8204 36.6557 29.1964C36.1126 29.5724 35.4442 29.8648 34.6504 30.0737C33.8705 30.2826 32.9932 30.387 32.0184 30.387ZM32.2064 19.7128C32.7216 19.7128 33.1533 19.5318 33.5015 19.1697C33.8496 18.7937 34.0237 18.2576 34.0237 17.5613C34.0237 16.865 33.8496 16.3358 33.5015 15.9737C33.1673 15.5977 32.7356 15.4097 32.2064 15.4097C31.6772 15.4097 31.2385 15.5977 30.8904 15.9737C30.5422 16.3358 30.3681 16.865 30.3681 17.5613C30.3681 18.2576 30.5422 18.7937 30.8904 19.1697C31.2524 19.5318 31.6911 19.7128 32.2064 19.7128ZM32.4779 28.4444C33.3553 28.4444 34.0655 28.2773 34.6086 27.943C35.1656 27.6088 35.4442 27.2119 35.4442 26.7524C35.4442 26.3346 35.277 26.0561 34.9428 25.9168C34.6086 25.7776 34.1281 25.7079 33.5015 25.7079H32.081C31.719 25.7079 31.4056 25.694 31.141 25.6661C30.8904 25.6383 30.6606 25.5965 30.4517 25.5408C29.9364 25.9586 29.6788 26.4112 29.6788 26.8986C29.6788 27.386 29.9295 27.762 30.4308 28.0266C30.9321 28.3051 31.6145 28.4444 32.4779 28.4444ZM45.0557 25.6035C44.234 25.6035 43.4681 25.4642 42.7579 25.1857C42.0616 24.9072 41.4488 24.5103 40.9197 23.995C40.4044 23.4658 39.9936 22.8253 39.6872 22.0733C39.3948 21.3073 39.2485 20.4439 39.2485 19.483C39.2485 18.5361 39.4017 17.6866 39.7081 16.9346C40.0145 16.1687 40.4183 15.5211 40.9197 14.9919C41.4349 14.4488 42.0198 14.038 42.6743 13.7595C43.3288 13.467 44.0042 13.3208 44.7005 13.3208C45.5082 13.3208 46.2115 13.4601 46.8103 13.7386C47.4231 14.0171 47.9314 14.407 48.3352 14.9084C48.753 15.4097 49.0663 16.0016 49.2752 16.6839C49.4841 17.3663 49.5885 18.1113 49.5885 18.919C49.5885 19.1976 49.5746 19.4691 49.5468 19.7337C49.5189 19.9844 49.4841 20.1793 49.4423 20.3186H42.2357C42.361 21.2795 42.7091 22.0106 43.2801 22.5119C43.865 22.9993 44.5961 23.243 45.4734 23.243C45.9608 23.243 46.4134 23.1734 46.8312 23.0341C47.2629 22.8949 47.6877 22.693 48.1054 22.4284L49.1499 24.3084C48.565 24.7122 47.9174 25.0325 47.2072 25.2693C46.5109 25.4921 45.7937 25.6035 45.0557 25.6035ZM46.9565 18.2924C46.9565 17.4986 46.7755 16.8719 46.4134 16.4124C46.0514 15.9389 45.4943 15.7021 44.7423 15.7021C44.1296 15.7021 43.5795 15.925 43.0921 16.3706C42.6047 16.8023 42.3053 17.4429 42.1939 18.2924H46.9565ZM52.1172 13.6133H54.6239L54.8328 15.159H54.9163C55.4316 14.6577 55.9956 14.226 56.6083 13.8639C57.2211 13.5018 57.9243 13.3208 58.7181 13.3208C59.9854 13.3208 60.9045 13.7386 61.4755 14.5741C62.0464 15.3958 62.3319 16.5447 62.3319 18.0208V25.311H59.2612V18.3968C59.2612 17.4916 59.1289 16.858 58.8643 16.4959C58.6137 16.1338 58.1959 15.9528 57.611 15.9528C57.1236 15.9528 56.7058 16.0642 56.3577 16.287C56.0095 16.5098 55.6126 16.8371 55.167 17.2688V25.311H52.1172V13.6133ZM70.4707 25.6035C69.663 25.6035 68.911 25.4642 68.2147 25.1857C67.5184 24.9072 66.9127 24.5103 66.3974 23.995C65.8961 23.4658 65.4992 22.8253 65.2067 22.0733C64.9143 21.3073 64.7681 20.4439 64.7681 19.483C64.7681 18.5082 64.9282 17.6378 65.2485 16.8719C65.5827 16.106 66.0214 15.4654 66.5645 14.9501C67.1076 14.421 67.7413 14.0171 68.4654 13.7386C69.1896 13.4601 69.9485 13.3208 70.7423 13.3208C71.4664 13.3208 72.107 13.4461 72.6641 13.6968C73.2211 13.9475 73.7155 14.2538 74.1472 14.6159L72.685 16.6004C72.3925 16.3497 72.1001 16.1617 71.8076 16.0364C71.5291 15.8971 71.2227 15.8275 70.8885 15.8275C69.9973 15.8275 69.2731 16.1617 68.7161 16.8301C68.173 17.4847 67.9014 18.369 67.9014 19.483C67.9014 20.5832 68.173 21.4605 68.7161 22.115C69.2592 22.7696 69.9555 23.0968 70.805 23.0968C71.2227 23.0968 71.6266 23.0133 72.0165 22.8461C72.4064 22.6651 72.7616 22.4353 73.0819 22.1568L74.2934 24.183C73.7364 24.6704 73.1236 25.0325 72.4552 25.2693C71.7867 25.4921 71.1253 25.6035 70.4707 25.6035ZM81.0686 30.011H78.0397L79.669 25.3737L75.1361 13.6133H78.2277L80.0868 19.0444C80.2678 19.5736 80.435 20.1167 80.5881 20.6737C80.7413 21.2168 80.9015 21.7738 81.0686 22.3448H81.173C81.3123 21.8017 81.4515 21.2516 81.5908 20.6946C81.7301 20.1376 81.8693 19.5875 82.0086 19.0444L83.617 13.6133H86.5624L82.5099 25.6453L81.0686 30.011Z" fill="white"/>
</svg>
