<svg width="133" height="48" viewBox="0 0 133 48" fill="none" xmlns="http://www.w3.org/2000/svg">
<path d="M37.2929 12.5879C31.3694 12.5879 27.041 16.7944 27.041 22.5151C27.041 28.2154 31.4038 32.4712 37.2929 32.4712C41.302 32.4712 44.6449 30.5597 46.3859 27.3904L40.9689 25.8542C40.301 27.0221 38.9446 27.7249 37.3204 27.7249C35.1244 27.7249 33.5156 26.5417 33.0606 24.2517H47.4247L47.4556 24.0514C47.5397 23.4742 47.5895 22.9123 47.5895 22.3504V22.3487C47.5878 16.8793 43.3761 12.5879 37.2929 12.5879ZM33.1825 20.4492C33.7457 18.4665 35.2927 17.3783 37.3187 17.3783C39.4168 17.3783 41.0943 18.4546 41.7055 20.4492H33.1825Z" fill="#EF3333"/>
<path d="M95.0809 12.9653C92.6188 12.8227 90.5104 13.2946 89.0115 14.4591V7.05273L83.0605 9.08978V31.8708H89.0115V21.9062C89.0115 19.511 90.6048 18.1309 92.5724 18.1309C94.2688 18.1309 95.6973 19.7554 95.6973 21.9079V31.8708H101.36V20.9929C101.36 15.8239 98.0856 13.1401 95.0809 12.9653Z" fill="#EF3333"/>
<path d="M126.824 27.0465C125.452 27.0465 124.636 26.2402 124.636 24.9042L124.622 24.9059V12.8907H119.288L118.714 14.2267C117.221 13.2031 115.323 12.6191 113.344 12.6191C107.571 12.6191 103.447 16.7323 103.447 22.5107C103.447 28.3095 107.573 32.4719 113.344 32.4719C115.536 32.4719 117.236 31.7148 118.263 31.0731C119.29 30.4314 120.433 29.3263 120.433 29.3263C121.506 31.2496 123.554 32.4719 126.298 32.4719H129.205V27.0465H126.824ZM114.012 27.1314C111.376 27.1314 109.438 25.1623 109.438 22.526C109.438 19.905 111.359 17.9358 114.012 17.9358C116.647 17.9358 118.584 19.905 118.584 22.526C118.584 25.1623 116.647 27.1314 114.012 27.1314Z" fill="#EF3333"/>
<path d="M19.7578 12.8518L19.1363 14.2981C17.5859 13.1828 15.6818 12.5293 13.6043 12.5293C8.04309 12.5293 3.91211 16.7052 3.91211 22.173C3.91211 27.7223 8.04309 31.8117 13.6043 31.8117C15.2886 31.8117 16.8596 31.3873 18.2195 30.6336C18.5216 30.4672 18.8015 30.2652 19.0745 30.0564L19.114 30.0275V30.7575C19.114 33.2885 17.1172 34.8503 14.6327 34.8503C12.8334 34.8503 10.998 34.0847 10.4812 32.6638L4.90107 34.2459C6.30382 37.8328 9.86134 39.9463 14.6894 39.9463C21.0953 39.9463 25.0855 36.2134 25.0855 30.1871V12.8535L19.7578 12.8518ZM14.6516 26.7818C12.0161 26.7818 10.0777 24.8127 10.0777 22.1764C10.0777 19.5554 11.9989 17.5863 14.6516 17.5863C17.2872 17.5863 19.2239 19.5554 19.2239 22.1764C19.2239 24.8127 17.2872 26.7818 14.6516 26.7818Z" fill="#EF3333"/>
<path d="M71.8806 18.0065C73.6988 18.0065 75.2441 19.0573 75.8519 20.6768L81.4715 19.0879L81.4234 18.9164C80.0653 15.0613 76.4837 12.6016 71.9132 12.6016C65.8197 12.6016 61.4707 16.7147 61.4707 22.4897C61.4707 28.2648 65.8403 32.456 71.8926 32.456V32.4577C76.0717 32.4577 79.4489 30.3409 81.0628 26.9763L81.1349 26.7132L75.4381 25.0904C74.6878 26.3143 73.4018 27.0544 71.8823 27.0544C69.4236 27.0544 67.638 25.1481 67.638 22.5101C67.638 19.8721 69.4013 18.0065 71.8806 18.0065Z" fill="#EF3333"/>
<path d="M55.2754 24.3031V19.3514H59.8528V13.7512H55.2754V7.05273L49.3262 9.08978V25.4507C49.3262 28.9968 52.2347 31.8725 55.8214 31.8725H59.9593V26.4471H57.4645C56.091 26.4454 55.2754 25.6391 55.2754 24.3031Z" fill="#EF3333"/>
</svg>
