<svg width="38" height="38" viewBox="0 0 38 38" fill="none" xmlns="http://www.w3.org/2000/svg">
<path fill-rule="evenodd" clip-rule="evenodd" d="M17.2035 8.47856C17.9168 7.26596 19.6704 7.26596 20.3837 8.47856L31.9167 28.0846C32.6401 29.3144 31.7534 30.8648 30.3266 30.8648H7.26065C5.83384 30.8648 4.94713 29.3144 5.67054 28.0846L17.2035 8.47856Z" fill="#EF3333"/>
<rect x="20.1768" y="21.4551" width="2.76721" height="8.30163" transform="rotate(-180 20.1768 21.4551)" fill="white"/>
<path fill-rule="evenodd" clip-rule="evenodd" d="M18.7936 23.3001C17.52 23.3001 16.4876 24.3325 16.4876 25.6061C16.4876 26.8797 17.52 27.9121 18.7936 27.9121C20.0672 27.9121 21.0996 26.8797 21.0996 25.6061C21.0996 24.3325 20.0672 23.3001 18.7936 23.3001Z" fill="white"/>
</svg>
