<svg width="16" height="16" viewBox="0 0 16 16" fill="none" xmlns="http://www.w3.org/2000/svg">
<path d="M0 2C0 0.895431 0.895431 0 2 0H14C15.1046 0 16 0.895431 16 2V14C16 15.1046 15.1046 16 14 16H2C0.895431 16 0 15.1046 0 14V2Z" fill="#EF3333"/>
<path d="M5.16406 4.59961H6.67406L8.82406 8.53961L9.56406 10.1396H9.61406C9.57406 9.75294 9.53073 9.32961 9.48406 8.86961C9.44406 8.40961 9.42406 7.96961 9.42406 7.54961V4.59961H10.8241V11.9996H9.32406L7.18406 8.03961L6.43406 6.44961H6.38406C6.4174 6.84961 6.45406 7.27294 6.49406 7.71961C6.54073 8.16628 6.56406 8.60294 6.56406 9.02961V11.9996H5.16406V4.59961Z" fill="white" stroke="white" stroke-width="0.5"/>
</svg>
