<svg width="37" height="37" viewBox="0 0 37 37" fill="none" xmlns="http://www.w3.org/2000/svg">
<path fill-rule="evenodd" clip-rule="evenodd" d="M16.8578 8.23833C17.5711 7.02573 19.3247 7.02573 20.038 8.23833L31.571 27.8444C32.2944 29.0742 31.4077 30.6245 29.9809 30.6245H6.91494C5.48814 30.6245 4.60142 29.0742 5.32484 27.8444L16.8578 8.23833Z" fill="#F7C547"/>
<rect x="19.8315" y="21.2148" width="2.76721" height="8.30163" transform="rotate(-180 19.8315 21.2148)" fill="#1A1818" fill-opacity="0.77"/>
<path fill-rule="evenodd" clip-rule="evenodd" d="M18.4479 23.0599C17.1743 23.0599 16.1419 24.0923 16.1419 25.3659C16.1419 26.6394 17.1743 27.6719 18.4479 27.6719C19.7215 27.6719 20.7539 26.6394 20.7539 25.3659C20.7539 24.0923 19.7215 23.0599 18.4479 23.0599Z" fill="#1A1818" fill-opacity="0.77"/>
</svg>
