<svg xmlns="http://www.w3.org/2000/svg" viewBox="0 0 64 64"><defs><style>.cls-1{isolation:isolate;}.cls-2{mix-blend-mode:multiply;}.cls-3{opacity:0.08;}.cls-4{fill:#50aee2;}.cls-5,.cls-7{fill:#368bba;}.cls-6{fill:#302a27;}.cls-7{opacity:0.5;}</style></defs><title>whale</title><g class="cls-1"><g id="icons" class="cls-2"><ellipse class="cls-3" cx="36" cy="56" rx="18" ry="2"/><path class="cls-4" d="M42,33H38a17.68,17.68,0,0,0-2,.11,13.32,13.32,0,0,0-8.74,4.4c-1,.95-1.54,1.49-2.12,1.49a.86.86,0,0,1-.77-.47L22.52,34.8A14.45,14.45,0,0,1,20,35a15.28,15.28,0,0,1-2-.12,2.27,2.27,0,0,0,0,.36V41A10,10,0,0,0,28,51H48a4,4,0,0,0,4-4V43A10,10,0,0,0,42,33Z"/><path class="cls-5" d="M27.94,28.37a1,1,0,0,0-.58-.74c-1.75-.77-5.22-1.31-7.36,1.22-2.14-2.53-5.61-2-7.36-1.22a1,1,0,0,0-.58.74,5.49,5.49,0,0,0,1.17,4.21C14.56,34.19,16.84,35,20,35s5.44-.81,6.78-2.42A5.49,5.49,0,0,0,27.94,28.37Z"/><circle class="cls-6" cx="43" cy="44" r="1"/><path class="cls-5" d="M42.41,19.91a1.89,1.89,0,0,0-1.87-.48,1.93,1.93,0,0,0-1.24,1.09A45.45,45.45,0,0,0,38,14.86a2.54,2.54,0,0,0-1.75-1.76,2.51,2.51,0,0,0-2.48.64,2.6,2.6,0,0,0-.26,3.41A24.12,24.12,0,0,1,38,30h0a1,1,0,1,0,2,0,14.1,14.1,0,0,1,2.6-7.44A2,2,0,0,0,42.41,19.91Z"/><path class="cls-7" d="M42,33c0,1.1-1.34,2-3,2s-2.91-.84-3-1.89A17.68,17.68,0,0,1,38,33Z"/></g></g></svg>